# xmcd CD database file
#
# Track frame offsets:
#	150
#	14295
#	27682
#	42006
#	55455
#	69762
#	84936
#	98988
#	113103
#	127777
#	140957
#	156154
#	170710
#	185254
#	198950
#	214414
#	227522
#	241061
#	254853
#	268522
#	280825
#	296510
#	309205
#	322439
#	336645
#
# Disc length: 4664 seconds
#
# Revision: 1
# Processed by: cddbd v1.5.2PL0 Copyright (c) Steve Scherf et al.
# Submitted via: CDex 1.51
#
DISCID=79123619
DTITLE=Beiderbecke Bix - Krazy Kat, cd 2
DYEAR=1900
DGENRE=Jazz
TTITLE0=Royal Garden Blues
TTITLE1=At The Jazz Band Ball
TTITLE2=Jazz Me blues
TTITLE3=Sorry
TTITLE4=Since My Best Gal Turned Me Down
TTITLE5=Goose Pimples
TTITLE6=A Good Man Is Hard to Find
TTITLE7=Cryin' All Day
TTITLE8=Sugar
TTITLE9=Three Blind Mice
TTITLE10=Jubilee
TTITLE11=Mississipi Mud
TTITLE12=Borneo
TTITLE13=Thou Swell
TTITLE14=Rythm King
TTITLE15=Louisiana
TTITLE16=Margie
TTITLE17=The love Nest
TTITLE18=I Like That
TTITLE19=China Boy
TTITLE20=Rockin' Chair
TTITLE21=Barnacle Bill The Sailor
TTITLE22=Loved One
TTITLE23=Deep Harlem
TTITLE24=Bessie Couldn't Help It
EXTD=
EXTT0=
EXTT1=
EXTT2=
EXTT3=
EXTT4=
EXTT5=
EXTT6=
EXTT7=
EXTT8=
EXTT9=
EXTT10=
EXTT11=
EXTT12=
EXTT13=
EXTT14=
EXTT15=
EXTT16=
EXTT17=
EXTT18=
EXTT19=
EXTT20=
EXTT21=
EXTT22=
EXTT23=
EXTT24=
PLAYORDER=
